<?xml version="1.0" encoding="UTF-8"?>
<!DOCTYPE svg PUBLIC "-//W3C//DTD SVG 1.1//EN" "http://www.w3.org/Graphics/SVG/1.1/DTD/svg11.dtd">
<svg xmlns="http://www.w3.org/2000/svg" version="1.1" width="320px" height="78px" style="shape-rendering:geometricPrecision; text-rendering:geometricPrecision; image-rendering:optimizeQuality; fill-rule:evenodd; clip-rule:evenodd" xmlns:xlink="http://www.w3.org/1999/xlink">
<g><path style="opacity:0.855" fill="#ff150b" d="M -0.5,61.5 C -0.5,46.8333 -0.5,32.1667 -0.5,17.5C 10.0792,15.3468 20.7458,14.1801 31.5,14C 33.4875,15.3189 34.6541,17.1523 35,19.5C 36.4907,17.9963 38.324,17.1629 40.5,17C 49.7566,15.0091 59.09,14.0091 68.5,14C 70.7375,16.0305 72.2375,18.5305 73,21.5C 73.625,18.3879 75.4583,16.5546 78.5,16C 86.897,15.1301 95.2303,15.4635 103.5,17C 107.424,22.8615 109.091,29.3615 108.5,36.5C 111.85,36.335 115.183,36.5017 118.5,37C 120.016,38.897 120.683,41.0637 120.5,43.5C 123.167,43.5 125.833,43.5 128.5,43.5C 128.722,39.8292 129.056,36.1625 129.5,32.5C 129.607,29.4426 128.44,27.1093 126,25.5C 125.333,21.8333 125.333,18.1667 126,14.5C 126.5,14 127,13.5 127.5,13C 133.156,12.1118 138.823,11.2785 144.5,10.5C 144.709,9.91395 145.043,9.41395 145.5,9C 154.524,8.45963 163.524,8.79296 172.5,10C 173.416,10.3742 174.25,10.8742 175,11.5C 175.884,16.3275 175.384,20.9942 173.5,25.5C 169.908,26.907 166.241,28.0737 162.5,29C 169.291,27.4474 172.458,30.2807 172,37.5C 173.772,30.1861 175.939,23.0194 178.5,16C 187.677,13.5623 197.011,12.8956 206.5,14C 207,14.5 207.5,15 208,15.5C 208.093,12.9925 208.926,10.8259 210.5,9C 224.927,8.03487 239.26,8.3682 253.5,10C 257.453,21.6452 253.453,26.8119 241.5,25.5C 241.015,37.1638 240.515,48.8305 240,60.5C 239.5,61.6667 238.667,62.5 237.5,63C 233.153,64.2871 228.82,64.4538 224.5,63.5C 223.808,62.9747 223.308,62.3081 223,61.5C 221.991,49.8406 221.157,38.1739 220.5,26.5C 217.833,26.5 215.167,26.5 212.5,26.5C 214.83,31.6718 213.163,34.5052 207.5,35C 203.789,35.4389 200.122,35.1056 196.5,34C 195.108,30.6189 192.775,29.7855 189.5,31.5C 188.18,36.7403 187.513,42.0736 187.5,47.5C 190.5,47.5 193.5,47.5 196.5,47.5C 196.329,45.0072 197.329,43.1739 199.5,42C 204.087,41.2009 208.587,41.3676 213,42.5C 214.193,49.9219 212.693,56.7552 208.5,63C 200.564,64.53 192.564,64.8633 184.5,64C 180.367,60.8689 176.534,57.3689 173,53.5C 172.55,55.519 171.717,57.3523 170.5,59C 163.281,61.093 155.948,62.093 148.5,62C 148,61.5 147.5,61 147,60.5C 146.441,56.8136 145.774,53.147 145,49.5C 143.698,53.2743 141.531,56.441 138.5,59C 130.142,60.7986 121.809,60.7986 113.5,59C 111.451,56.4066 109.285,53.9066 107,51.5C 106.464,55.1898 104.964,58.3564 102.5,61C 94.8333,61.6667 87.1667,61.6667 79.5,61C 77.8988,60.7266 76.3988,60.2266 75,59.5C 74.7265,61.3289 73.8932,62.8289 72.5,64C 68.3112,64.3355 64.1445,64.8355 60,65.5C 57.849,65.3569 56.1824,64.3569 55,62.5C 53.3333,59.1667 51.6667,55.8333 50,52.5C 52.8469,63.3198 49.0136,66.8198 38.5,63C 37.6667,62.1667 36.8333,61.3333 36,60.5C 35.6667,55.1667 35.3333,49.8333 35,44.5C 26.8786,44.0205 18.712,44.5205 10.5,46C 11.8333,51 13.1667,56 14.5,61C 13.2708,63.4491 11.2708,64.6158 8.5,64.5C 5.17141,64.2568 2.17141,63.2568 -0.5,61.5 Z M 10.5,28.5 C 12.5,28.5 14.5,28.5 16.5,28.5C 15.9694,31.7794 13.9694,33.1128 10.5,32.5C 10.5,31.1667 10.5,29.8333 10.5,28.5 Z M 47.5,28.5 C 49.5,28.5 51.5,28.5 53.5,28.5C 52.9694,31.7794 50.9694,33.1128 47.5,32.5C 47.5,31.1667 47.5,29.8333 47.5,28.5 Z M 85.5,30.5 C 88.1667,30.5 90.8333,30.5 93.5,30.5C 93.5,35.8333 93.5,41.1667 93.5,46.5C 91.1667,46.5 88.8333,46.5 86.5,46.5C 85.9022,41.187 85.5688,35.8537 85.5,30.5 Z M 170.5,38.5 C 171.012,41.6318 171.012,44.9651 170.5,48.5C 167.833,48.5 165.167,48.5 162.5,48.5C 162.5,46.5 162.5,44.5 162.5,42.5C 166.39,43.2232 169.056,41.8898 170.5,38.5 Z M 73.5,57.5 C 69.7312,53.2288 65.7312,49.0621 61.5,45C 64.7928,44.1744 68.1262,43.6744 71.5,43.5C 72.383,48.1317 73.0496,52.7984 73.5,57.5 Z"/></g>
<g><path style="opacity:1" fill="#fff6f6" d="M 166.5,12.5 C 167.919,13.4511 169.585,13.7845 171.5,13.5C 171.5,15.8333 171.5,18.1667 171.5,20.5C 171.5,21.5 171.5,22.5 171.5,23.5C 167.5,23.5 163.5,23.5 159.5,23.5C 159.5,24.8333 159.5,26.1667 159.5,27.5C 159.5,29.1667 159.5,30.8333 159.5,32.5C 162.5,32.5 165.5,32.5 168.5,32.5C 168.756,34.7925 168.423,36.9592 167.5,39C 164.574,39.2178 161.74,39.7178 159,40.5C 158.501,44.1516 158.335,47.8183 158.5,51.5C 162.167,51.5 165.833,51.5 169.5,51.5C 169.5,53.1667 169.5,54.8333 169.5,56.5C 162.833,57.5 156.167,58.5 149.5,59.5C 147.938,43.5443 147.272,27.5443 147.5,11.5C 153.845,11.6527 160.178,11.986 166.5,12.5 Z"/></g>
<g><path style="opacity:1" fill="#fffafa" d="M 234.5,11.5 C 239.64,12.4881 244.974,12.8214 250.5,12.5C 250.5,15.1667 250.5,17.8333 250.5,20.5C 246.971,22.4228 242.971,23.0894 238.5,22.5C 237.56,35.1495 236.893,47.8162 236.5,60.5C 232.833,60.5 229.167,60.5 225.5,60.5C 224.783,48.1799 224.449,35.8466 224.5,23.5C 220.5,23.5 216.5,23.5 212.5,23.5C 212.5,19.5 212.5,15.5 212.5,11.5C 219.833,11.5 227.167,11.5 234.5,11.5 Z"/></g>
<g><path style="opacity:1" fill="#ff9694" d="M 234.5,11.5 C 240.167,11.5 245.833,11.5 251.5,11.5C 251.81,14.7131 251.477,17.7131 250.5,20.5C 250.5,17.8333 250.5,15.1667 250.5,12.5C 244.974,12.8214 239.64,12.4881 234.5,11.5 Z"/></g>
<g><path style="opacity:1" fill="#ffb6b5" d="M 133.5,15.5 C 137.634,14.5151 141.968,14.1818 146.5,14.5C 146.5,17.1667 146.5,19.8333 146.5,22.5C 145.532,20.3926 145.198,18.0593 145.5,15.5C 141.5,15.5 137.5,15.5 133.5,15.5 Z"/></g>
<g><path style="opacity:0.841" fill="#ff130b" d="M 319.5,49.5 C 319.5,50.8333 319.5,52.1667 319.5,53.5C 315.169,57.6633 310.669,61.6633 306,65.5C 300.067,61.9035 294.4,57.9035 289,53.5C 286.479,56.0322 284.312,58.8655 282.5,62C 280.447,62.3247 278.447,61.9913 276.5,61C 272.356,59.0154 269.023,56.1821 266.5,52.5C 268.774,48.228 271.441,44.228 274.5,40.5C 271.542,38.0443 268.709,35.3777 266,32.5C 265.104,29.975 265.604,27.8083 267.5,26C 271.052,24.2054 274.718,22.7054 278.5,21.5C 281.667,22.0007 284.001,23.6674 285.5,26.5C 289.652,22.8489 293.652,19.0156 297.5,15C 301.682,14.3891 305.682,15.0558 309.5,17C 313.866,18.223 315.033,20.723 313,24.5C 307.866,28.6329 303.032,33.1329 298.5,38C 305.527,41.8456 312.527,45.679 319.5,49.5 Z"/></g>
<g><path style="opacity:1" fill="#fffaf9" d="M 129.5,15.5 C 130.833,15.5 132.167,15.5 133.5,15.5C 137.5,15.5 141.5,15.5 145.5,15.5C 145.198,18.0593 145.532,20.3926 146.5,22.5C 145.791,23.404 144.791,23.7373 143.5,23.5C 143.666,31.1739 143.5,38.8406 143,46.5C 141.365,49.6319 139.532,52.6319 137.5,55.5C 130.189,56.6646 122.856,56.8313 115.5,56C 109.808,51.8505 107.141,46.3505 107.5,39.5C 110.5,39.5 113.5,39.5 116.5,39.5C 116.5,42.1667 116.5,44.8333 116.5,47.5C 121.343,47.8835 126.009,47.2168 130.5,45.5C 131.598,41.5767 132.265,37.5767 132.5,33.5C 133.479,30.3752 133.813,27.0419 133.5,23.5C 132.167,23.5 130.833,23.5 129.5,23.5C 129.5,20.8333 129.5,18.1667 129.5,15.5 Z"/></g>
<g><path style="opacity:1" fill="#ff918f" d="M 166.5,12.5 C 168.5,12.5 170.5,12.5 172.5,12.5C 172.806,15.3854 172.473,18.0521 171.5,20.5C 171.5,18.1667 171.5,15.8333 171.5,13.5C 169.585,13.7845 167.919,13.4511 166.5,12.5 Z"/></g>
<g><path style="opacity:1" fill="#fff4f3" d="M 23.5,16.5 C 26.1194,16.2317 28.6194,16.565 31,17.5C 32.3333,21.5 33.6667,25.5 35,29.5C 35.8166,32.9643 35.4833,36.2976 34,39.5C 32.2663,40.2489 30.433,40.7489 28.5,41C 21.5079,41.4996 14.5079,41.6663 7.5,41.5C 8.24211,48.2095 9.24211,54.8762 10.5,61.5C 7.51984,61.3797 4.68651,60.713 2,59.5C 1.49988,46.4968 0.999877,33.4968 0.5,20.5C 8.32567,19.3383 15.9923,18.005 23.5,16.5 Z M 10.5,28.5 C 10.5,29.8333 10.5,31.1667 10.5,32.5C 13.9694,33.1128 15.9694,31.7794 16.5,28.5C 14.5,28.5 12.5,28.5 10.5,28.5 Z"/></g>
<g><path style="opacity:1" fill="#fff3f2" d="M 60.5,16.5 C 63.1194,16.2317 65.6194,16.565 68,17.5C 71.023,23.8824 72.3564,30.549 72,37.5C 71.6258,38.4162 71.1258,39.2496 70.5,40C 65.2152,41.026 59.8819,41.6927 54.5,42C 59.9825,48.3167 65.6492,54.4834 71.5,60.5C 66.8333,61.8333 62.1667,61.8333 57.5,60.5C 54.6667,54.8333 51.8333,49.1667 49,43.5C 47.6439,42.6198 46.1439,42.2865 44.5,42.5C 45.3717,48.8579 46.3717,55.1912 47.5,61.5C 44.5198,61.3797 41.6865,60.713 39,59.5C 38.4999,46.4968 37.9999,33.4968 37.5,20.5C 45.3257,19.3383 52.9923,18.005 60.5,16.5 Z M 47.5,28.5 C 47.5,29.8333 47.5,31.1667 47.5,32.5C 50.9694,33.1128 52.9694,31.7794 53.5,28.5C 51.5,28.5 49.5,28.5 47.5,28.5 Z"/></g>
<g><path style="opacity:1" fill="#fff4f4" d="M 186.5,16.5 C 192.509,16.3338 198.509,16.5005 204.5,17C 207.259,21.4439 208.926,26.2772 209.5,31.5C 205.774,31.8226 202.107,31.4892 198.5,30.5C 197.754,29.2638 197.421,27.9305 197.5,26.5C 194.482,26.3354 191.482,26.502 188.5,27C 187.692,27.3076 187.025,27.8076 186.5,28.5C 185.285,35.7933 184.285,43.1266 183.5,50.5C 188.833,50.5 194.167,50.5 199.5,50.5C 199.5,48.5 199.5,46.5 199.5,44.5C 203.167,44.5 206.833,44.5 210.5,44.5C 210.541,49.7615 209.374,54.7615 207,59.5C 191.31,65.9929 180.143,61.6595 173.5,46.5C 175.052,37.2909 177.386,28.2909 180.5,19.5C 182.444,18.1993 184.444,17.1993 186.5,16.5 Z"/></g>
<g><path style="opacity:1" fill="#fff7f7" d="M 298.5,17.5 C 302.678,18.2262 306.678,19.5595 310.5,21.5C 304.49,26.5104 299.157,32.177 294.5,38.5C 300.682,43.7629 307.682,47.7629 315.5,50.5C 316.521,51.0016 316.688,51.6683 316,52.5C 312.942,56.0617 309.442,59.0617 305.5,61.5C 299.515,57.345 293.682,53.0117 288,48.5C 285.226,51.2025 283.059,54.3692 281.5,58C 277.798,57.8238 274.465,56.4905 271.5,54C 270.483,52.9505 270.316,51.7839 271,50.5C 273.692,47.3081 276.192,43.9748 278.5,40.5C 275.167,36.8333 271.833,33.1667 268.5,29.5C 271.623,27.4561 274.956,25.7895 278.5,24.5C 281.167,26.5 283.5,28.8333 285.5,31.5C 289.827,26.8392 294.16,22.1725 298.5,17.5 Z"/></g>
<g><path style="opacity:1" fill="#fff4f3" d="M 79.5,18.5 C 86.175,18.3337 92.8417,18.5004 99.5,19C 100.931,19.4652 102.097,20.2986 103,21.5C 106.644,33.5458 106.144,45.3792 101.5,57C 93.2543,57.8149 85.0876,57.6483 77,56.5C 74.7054,46.2752 74.0387,35.9418 75,25.5C 75.5303,22.415 77.0303,20.0817 79.5,18.5 Z M 85.5,30.5 C 85.5688,35.8537 85.9022,41.187 86.5,46.5C 88.8333,46.5 91.1667,46.5 93.5,46.5C 93.5,41.1667 93.5,35.8333 93.5,30.5C 90.8333,30.5 88.1667,30.5 85.5,30.5 Z"/></g>
<g><path style="opacity:1" fill="#ff7574" d="M 171.5,23.5 C 168.038,24.4816 164.371,24.815 160.5,24.5C 160.737,25.791 160.404,26.791 159.5,27.5C 159.5,26.1667 159.5,24.8333 159.5,23.5C 163.5,23.5 167.5,23.5 171.5,23.5 Z"/></g>
<g><path style="opacity:1" fill="#ff9b9b" d="M 129.5,15.5 C 129.5,18.1667 129.5,20.8333 129.5,23.5C 130.833,23.5 132.167,23.5 133.5,23.5C 133.813,27.0419 133.479,30.3752 132.5,33.5C 132.5,30.5 132.5,27.5 132.5,24.5C 131.167,24.5 129.833,24.5 128.5,24.5C 128.19,21.2869 128.523,18.2869 129.5,15.5 Z"/></g>
<g><path style="opacity:0.906" fill="#fe0000" d="M 19.5,25.5 C 19.5,28.5 19.5,31.5 19.5,34.5C 17.5853,34.2155 15.9187,34.5489 14.5,35.5C 12.1667,35.5 9.83333,35.5 7.5,35.5C 7.5,32.1667 7.5,28.8333 7.5,25.5C 11.5,25.5 15.5,25.5 19.5,25.5 Z M 10.5,28.5 C 10.5,29.8333 10.5,31.1667 10.5,32.5C 13.9694,33.1128 15.9694,31.7794 16.5,28.5C 14.5,28.5 12.5,28.5 10.5,28.5 Z"/></g>
<g><path style="opacity:0.906" fill="#fe0000" d="M 56.5,25.5 C 56.5,28.5 56.5,31.5 56.5,34.5C 54.5853,34.2155 52.9187,34.5489 51.5,35.5C 49.1667,35.5 46.8333,35.5 44.5,35.5C 44.5,32.1667 44.5,28.8333 44.5,25.5C 48.5,25.5 52.5,25.5 56.5,25.5 Z M 47.5,28.5 C 47.5,29.8333 47.5,31.1667 47.5,32.5C 50.9694,33.1128 52.9694,31.7794 53.5,28.5C 51.5,28.5 49.5,28.5 47.5,28.5 Z"/></g>
<g><path style="opacity:1" fill="#ff7877" d="M 19.5,25.5 C 20.4794,28.6248 20.8128,31.9581 20.5,35.5C 18.5,35.5 16.5,35.5 14.5,35.5C 15.9187,34.5489 17.5853,34.2155 19.5,34.5C 19.5,31.5 19.5,28.5 19.5,25.5 Z"/></g>
<g><path style="opacity:1" fill="#ff7877" d="M 56.5,25.5 C 57.4794,28.6248 57.8128,31.9581 57.5,35.5C 55.5,35.5 53.5,35.5 51.5,35.5C 52.9187,34.5489 54.5853,34.2155 56.5,34.5C 56.5,31.5 56.5,28.5 56.5,25.5 Z"/></g>
<g><path style="opacity:0.886" fill="#ff1e11" d="M 82.5,26.5 C 87.1667,26.5 91.8333,26.5 96.5,26.5C 96.5,34.1667 96.5,41.8333 96.5,49.5C 92.1667,49.5 87.8333,49.5 83.5,49.5C 82.6869,41.8623 82.3536,34.1956 82.5,26.5 Z M 85.5,30.5 C 85.5688,35.8537 85.9022,41.187 86.5,46.5C 88.8333,46.5 91.1667,46.5 93.5,46.5C 93.5,41.1667 93.5,35.8333 93.5,30.5C 90.8333,30.5 88.1667,30.5 85.5,30.5 Z"/></g>
</svg>
